<mxfile host="app.diagrams.net" modified="2024-04-29T01:57:35.589Z" agent="Mozilla/5.0 (Windows NT 10.0; Win64; x64; rv:125.0) Gecko/20100101 Firefox/125.0" etag="0b8qLFcqjm2SjMbIhBwI" version="24.2.1" type="device">
  <diagram name="Page-1" id="LSVUokwyKo00TRgDu8mJ">
    <mxGraphModel dx="1016" dy="940" grid="1" gridSize="10" guides="1" tooltips="1" connect="1" arrows="1" fold="1" page="1" pageScale="1" pageWidth="1169" pageHeight="827" math="0" shadow="0">
      <root>
        <mxCell id="0" />
        <mxCell id="1" parent="0" />
        <mxCell id="I8Ql2MuUo-6YVxlQ8j8f-34" style="edgeStyle=orthogonalEdgeStyle;rounded=0;orthogonalLoop=1;jettySize=auto;html=1;endArrow=none;endFill=0;" edge="1" parent="1" source="I8Ql2MuUo-6YVxlQ8j8f-1">
          <mxGeometry relative="1" as="geometry">
            <mxPoint x="90" y="704" as="targetPoint" />
            <Array as="points">
              <mxPoint x="90" y="117" />
            </Array>
          </mxGeometry>
        </mxCell>
        <mxCell id="I8Ql2MuUo-6YVxlQ8j8f-1" value="root" style="sketch=0;outlineConnect=0;fontColor=default;gradientColor=none;fillColor=#050505;strokeColor=none;dashed=0;verticalLabelPosition=bottom;verticalAlign=top;align=center;html=1;fontSize=12;fontStyle=0;aspect=fixed;pointerEvents=1;shape=mxgraph.aws4.folder;shadow=0;fontFamily=Helvetica;" vertex="1" parent="1">
          <mxGeometry x="40" y="30" width="65.92" height="60" as="geometry" />
        </mxCell>
        <mxCell id="I8Ql2MuUo-6YVxlQ8j8f-2" value="&lt;div&gt;index.html&lt;/div&gt;" style="sketch=0;pointerEvents=1;shadow=0;dashed=0;html=1;strokeColor=none;fillColor=#050505;labelPosition=center;verticalLabelPosition=bottom;verticalAlign=top;outlineConnect=0;align=center;shape=mxgraph.office.concepts.document;fontFamily=Helvetica;fontSize=12;fontColor=default;" vertex="1" parent="1">
          <mxGeometry x="180" y="380" width="50" height="70" as="geometry" />
        </mxCell>
        <mxCell id="I8Ql2MuUo-6YVxlQ8j8f-3" value="&lt;div&gt;ss_A1_about.html&lt;/div&gt;" style="sketch=0;pointerEvents=1;shadow=0;dashed=0;html=1;strokeColor=none;fillColor=#050505;labelPosition=center;verticalLabelPosition=bottom;verticalAlign=top;outlineConnect=0;align=center;shape=mxgraph.office.concepts.document;fontFamily=Helvetica;fontSize=12;fontColor=default;" vertex="1" parent="1">
          <mxGeometry x="180" y="480" width="50" height="70" as="geometry" />
        </mxCell>
        <mxCell id="I8Ql2MuUo-6YVxlQ8j8f-4" value="&lt;div&gt;ss_A1_resume.html&lt;/div&gt;" style="sketch=0;pointerEvents=1;shadow=0;dashed=0;html=1;strokeColor=none;fillColor=#050505;labelPosition=center;verticalLabelPosition=bottom;verticalAlign=top;outlineConnect=0;align=center;shape=mxgraph.office.concepts.document;fontFamily=Helvetica;fontSize=12;fontColor=default;" vertex="1" parent="1">
          <mxGeometry x="180" y="580" width="50" height="70" as="geometry" />
        </mxCell>
        <mxCell id="I8Ql2MuUo-6YVxlQ8j8f-5" value="ss_A1_web_skills.html" style="sketch=0;pointerEvents=1;shadow=0;dashed=0;html=1;strokeColor=none;fillColor=#050505;labelPosition=center;verticalLabelPosition=bottom;verticalAlign=top;outlineConnect=0;align=center;shape=mxgraph.office.concepts.document;fontFamily=Helvetica;fontSize=12;fontColor=default;" vertex="1" parent="1">
          <mxGeometry x="180" y="680" width="50" height="70" as="geometry" />
        </mxCell>
        <mxCell id="I8Ql2MuUo-6YVxlQ8j8f-21" style="edgeStyle=orthogonalEdgeStyle;rounded=0;orthogonalLoop=1;jettySize=auto;html=1;endArrow=none;endFill=0;" edge="1" parent="1" source="I8Ql2MuUo-6YVxlQ8j8f-6">
          <mxGeometry relative="1" as="geometry">
            <mxPoint x="650" y="333" as="targetPoint" />
          </mxGeometry>
        </mxCell>
        <mxCell id="I8Ql2MuUo-6YVxlQ8j8f-6" value="css" style="sketch=0;outlineConnect=0;fontColor=default;gradientColor=none;fillColor=#050505;strokeColor=none;dashed=0;verticalLabelPosition=bottom;verticalAlign=top;align=center;html=1;fontSize=12;fontStyle=0;aspect=fixed;pointerEvents=1;shape=mxgraph.aws4.folder;shadow=0;fontFamily=Helvetica;" vertex="1" parent="1">
          <mxGeometry x="172.04000000000002" y="110" width="65.92" height="60" as="geometry" />
        </mxCell>
        <mxCell id="I8Ql2MuUo-6YVxlQ8j8f-7" value="documents" style="sketch=0;outlineConnect=0;fontColor=default;gradientColor=none;fillColor=#050505;strokeColor=none;dashed=0;verticalLabelPosition=bottom;verticalAlign=top;align=center;html=1;fontSize=12;fontStyle=0;aspect=fixed;pointerEvents=1;shape=mxgraph.aws4.folder;shadow=0;fontFamily=Helvetica;" vertex="1" parent="1">
          <mxGeometry x="172.04000000000002" y="200" width="65.92" height="60" as="geometry" />
        </mxCell>
        <mxCell id="I8Ql2MuUo-6YVxlQ8j8f-18" style="edgeStyle=orthogonalEdgeStyle;rounded=0;orthogonalLoop=1;jettySize=auto;html=1;endArrow=none;endFill=0;" edge="1" parent="1" source="I8Ql2MuUo-6YVxlQ8j8f-8">
          <mxGeometry relative="1" as="geometry">
            <mxPoint x="320" y="772" as="targetPoint" />
          </mxGeometry>
        </mxCell>
        <mxCell id="I8Ql2MuUo-6YVxlQ8j8f-8" value="images" style="sketch=0;outlineConnect=0;fontColor=default;gradientColor=none;fillColor=#050505;strokeColor=none;dashed=0;verticalLabelPosition=bottom;verticalAlign=top;align=center;html=1;fontSize=12;fontStyle=0;aspect=fixed;pointerEvents=1;shape=mxgraph.aws4.folder;shadow=0;fontFamily=Helvetica;" vertex="1" parent="1">
          <mxGeometry x="172.04000000000002" y="290" width="65.92" height="60" as="geometry" />
        </mxCell>
        <mxCell id="I8Ql2MuUo-6YVxlQ8j8f-9" value="style.css" style="sketch=0;pointerEvents=1;shadow=0;dashed=0;html=1;strokeColor=none;fillColor=#050505;labelPosition=center;verticalLabelPosition=bottom;verticalAlign=top;outlineConnect=0;align=center;shape=mxgraph.office.concepts.document;" vertex="1" parent="1">
          <mxGeometry x="690" y="110" width="50" height="70" as="geometry" />
        </mxCell>
        <mxCell id="I8Ql2MuUo-6YVxlQ8j8f-10" value="construction.css" style="sketch=0;pointerEvents=1;shadow=0;dashed=0;html=1;strokeColor=none;fillColor=#050505;labelPosition=center;verticalLabelPosition=bottom;verticalAlign=top;outlineConnect=0;align=center;shape=mxgraph.office.concepts.document;fontFamily=Helvetica;fontSize=12;fontColor=default;" vertex="1" parent="1">
          <mxGeometry x="690" y="205" width="50" height="70" as="geometry" />
        </mxCell>
        <mxCell id="I8Ql2MuUo-6YVxlQ8j8f-11" value="resume.css" style="sketch=0;pointerEvents=1;shadow=0;dashed=0;html=1;strokeColor=none;fillColor=#050505;labelPosition=center;verticalLabelPosition=bottom;verticalAlign=top;outlineConnect=0;align=center;shape=mxgraph.office.concepts.document;fontFamily=Helvetica;fontSize=12;fontColor=default;" vertex="1" parent="1">
          <mxGeometry x="690" y="305" width="50" height="70" as="geometry" />
        </mxCell>
        <mxCell id="I8Ql2MuUo-6YVxlQ8j8f-12" value="&lt;div&gt;Construction.jpg&lt;/div&gt;" style="sketch=0;outlineConnect=0;dashed=0;verticalLabelPosition=bottom;verticalAlign=top;align=center;html=1;fontSize=12;fontStyle=0;aspect=fixed;pointerEvents=1;shape=mxgraph.aws4.container_registry_image;fillColor=#030303;gradientColor=none;strokeColor=#666666;" vertex="1" parent="1">
          <mxGeometry x="380" y="290" width="58" height="58" as="geometry" />
        </mxCell>
        <mxCell id="I8Ql2MuUo-6YVxlQ8j8f-13" value="&lt;div&gt;Construction2.jpg&lt;/div&gt;" style="sketch=0;outlineConnect=0;dashed=0;verticalLabelPosition=bottom;verticalAlign=top;align=center;html=1;fontSize=12;fontStyle=0;aspect=fixed;pointerEvents=1;shape=mxgraph.aws4.container_registry_image;fillColor=#030303;gradientColor=none;strokeColor=#666666;" vertex="1" parent="1">
          <mxGeometry x="380" y="380" width="58" height="58" as="geometry" />
        </mxCell>
        <mxCell id="I8Ql2MuUo-6YVxlQ8j8f-14" value="&lt;div&gt;Construction3.jpg&lt;/div&gt;" style="sketch=0;outlineConnect=0;dashed=0;verticalLabelPosition=bottom;verticalAlign=top;align=center;html=1;fontSize=12;fontStyle=0;aspect=fixed;pointerEvents=1;shape=mxgraph.aws4.container_registry_image;fillColor=#030303;gradientColor=none;strokeColor=#666666;" vertex="1" parent="1">
          <mxGeometry x="380" y="470" width="58" height="58" as="geometry" />
        </mxCell>
        <mxCell id="I8Ql2MuUo-6YVxlQ8j8f-15" value="linkedin.png" style="sketch=0;outlineConnect=0;dashed=0;verticalLabelPosition=bottom;verticalAlign=top;align=center;html=1;fontSize=12;fontStyle=0;aspect=fixed;pointerEvents=1;shape=mxgraph.aws4.container_registry_image;fillColor=#030303;gradientColor=none;strokeColor=#666666;" vertex="1" parent="1">
          <mxGeometry x="380" y="560" width="58" height="58" as="geometry" />
        </mxCell>
        <mxCell id="I8Ql2MuUo-6YVxlQ8j8f-16" value="Logo.png" style="sketch=0;outlineConnect=0;dashed=0;verticalLabelPosition=bottom;verticalAlign=top;align=center;html=1;fontSize=12;fontStyle=0;aspect=fixed;pointerEvents=1;shape=mxgraph.aws4.container_registry_image;fillColor=#030303;gradientColor=none;strokeColor=#666666;" vertex="1" parent="1">
          <mxGeometry x="380" y="650" width="58" height="58" as="geometry" />
        </mxCell>
        <mxCell id="I8Ql2MuUo-6YVxlQ8j8f-17" value="profile.jpg" style="sketch=0;outlineConnect=0;dashed=0;verticalLabelPosition=bottom;verticalAlign=top;align=center;html=1;fontSize=12;fontStyle=0;aspect=fixed;pointerEvents=1;shape=mxgraph.aws4.container_registry_image;fillColor=#030303;gradientColor=none;strokeColor=#666666;" vertex="1" parent="1">
          <mxGeometry x="380" y="740" width="58" height="58" as="geometry" />
        </mxCell>
        <mxCell id="I8Ql2MuUo-6YVxlQ8j8f-19" value="Design Documentation.docx" style="sketch=0;pointerEvents=1;shadow=0;dashed=0;html=1;strokeColor=none;fillColor=#050505;labelPosition=center;verticalLabelPosition=bottom;verticalAlign=top;outlineConnect=0;align=center;shape=mxgraph.office.concepts.document;" vertex="1" parent="1">
          <mxGeometry x="510" y="200" width="50" height="70" as="geometry" />
        </mxCell>
        <mxCell id="I8Ql2MuUo-6YVxlQ8j8f-20" style="edgeStyle=orthogonalEdgeStyle;rounded=0;orthogonalLoop=1;jettySize=auto;html=1;endArrow=none;endFill=0;" edge="1" parent="1" source="I8Ql2MuUo-6YVxlQ8j8f-7">
          <mxGeometry relative="1" as="geometry">
            <mxPoint x="511" y="230" as="targetPoint" />
          </mxGeometry>
        </mxCell>
        <mxCell id="I8Ql2MuUo-6YVxlQ8j8f-22" value="" style="endArrow=none;html=1;rounded=0;" edge="1" parent="1">
          <mxGeometry width="50" height="50" relative="1" as="geometry">
            <mxPoint x="650" y="140" as="sourcePoint" />
            <mxPoint x="692" y="140" as="targetPoint" />
          </mxGeometry>
        </mxCell>
        <mxCell id="I8Ql2MuUo-6YVxlQ8j8f-23" value="" style="endArrow=none;html=1;rounded=0;" edge="1" parent="1">
          <mxGeometry width="50" height="50" relative="1" as="geometry">
            <mxPoint x="650" y="236" as="sourcePoint" />
            <mxPoint x="692" y="236" as="targetPoint" />
          </mxGeometry>
        </mxCell>
        <mxCell id="I8Ql2MuUo-6YVxlQ8j8f-24" value="" style="endArrow=none;html=1;rounded=0;" edge="1" parent="1">
          <mxGeometry width="50" height="50" relative="1" as="geometry">
            <mxPoint x="650" y="333" as="sourcePoint" />
            <mxPoint x="692" y="333" as="targetPoint" />
          </mxGeometry>
        </mxCell>
        <mxCell id="I8Ql2MuUo-6YVxlQ8j8f-25" value="" style="endArrow=none;html=1;rounded=0;" edge="1" parent="1">
          <mxGeometry width="50" height="50" relative="1" as="geometry">
            <mxPoint x="320" y="319.95000000000005" as="sourcePoint" />
            <mxPoint x="381" y="320" as="targetPoint" />
          </mxGeometry>
        </mxCell>
        <mxCell id="I8Ql2MuUo-6YVxlQ8j8f-26" value="" style="endArrow=none;html=1;rounded=0;" edge="1" parent="1">
          <mxGeometry width="50" height="50" relative="1" as="geometry">
            <mxPoint x="320" y="410.00000000000006" as="sourcePoint" />
            <mxPoint x="381" y="410.05" as="targetPoint" />
          </mxGeometry>
        </mxCell>
        <mxCell id="I8Ql2MuUo-6YVxlQ8j8f-30" value="" style="endArrow=none;html=1;rounded=0;" edge="1" parent="1">
          <mxGeometry width="50" height="50" relative="1" as="geometry">
            <mxPoint x="320" y="502.00000000000006" as="sourcePoint" />
            <mxPoint x="381" y="502.05" as="targetPoint" />
          </mxGeometry>
        </mxCell>
        <mxCell id="I8Ql2MuUo-6YVxlQ8j8f-31" value="" style="endArrow=none;html=1;rounded=0;" edge="1" parent="1">
          <mxGeometry width="50" height="50" relative="1" as="geometry">
            <mxPoint x="320" y="592.0500000000001" as="sourcePoint" />
            <mxPoint x="381" y="592.1" as="targetPoint" />
          </mxGeometry>
        </mxCell>
        <mxCell id="I8Ql2MuUo-6YVxlQ8j8f-32" value="" style="endArrow=none;html=1;rounded=0;" edge="1" parent="1">
          <mxGeometry width="50" height="50" relative="1" as="geometry">
            <mxPoint x="320" y="682" as="sourcePoint" />
            <mxPoint x="381" y="682.05" as="targetPoint" />
          </mxGeometry>
        </mxCell>
        <mxCell id="I8Ql2MuUo-6YVxlQ8j8f-33" value="" style="endArrow=none;html=1;rounded=0;" edge="1" parent="1">
          <mxGeometry width="50" height="50" relative="1" as="geometry">
            <mxPoint x="320" y="772.0500000000001" as="sourcePoint" />
            <mxPoint x="381" y="772.1" as="targetPoint" />
          </mxGeometry>
        </mxCell>
        <mxCell id="I8Ql2MuUo-6YVxlQ8j8f-35" value="" style="endArrow=none;html=1;rounded=0;" edge="1" parent="1">
          <mxGeometry width="50" height="50" relative="1" as="geometry">
            <mxPoint x="90" y="140" as="sourcePoint" />
            <mxPoint x="174" y="140" as="targetPoint" />
          </mxGeometry>
        </mxCell>
        <mxCell id="I8Ql2MuUo-6YVxlQ8j8f-36" value="" style="endArrow=none;html=1;rounded=0;" edge="1" parent="1">
          <mxGeometry width="50" height="50" relative="1" as="geometry">
            <mxPoint x="90" y="235" as="sourcePoint" />
            <mxPoint x="174" y="235" as="targetPoint" />
          </mxGeometry>
        </mxCell>
        <mxCell id="I8Ql2MuUo-6YVxlQ8j8f-37" value="" style="endArrow=none;html=1;rounded=0;" edge="1" parent="1">
          <mxGeometry width="50" height="50" relative="1" as="geometry">
            <mxPoint x="89.99999999999999" y="324" as="sourcePoint" />
            <mxPoint x="174" y="324" as="targetPoint" />
          </mxGeometry>
        </mxCell>
        <mxCell id="I8Ql2MuUo-6YVxlQ8j8f-38" value="" style="endArrow=none;html=1;rounded=0;" edge="1" parent="1">
          <mxGeometry width="50" height="50" relative="1" as="geometry">
            <mxPoint x="89.99999999999999" y="419" as="sourcePoint" />
            <mxPoint x="182" y="419" as="targetPoint" />
          </mxGeometry>
        </mxCell>
        <mxCell id="I8Ql2MuUo-6YVxlQ8j8f-39" value="" style="endArrow=none;html=1;rounded=0;" edge="1" parent="1">
          <mxGeometry width="50" height="50" relative="1" as="geometry">
            <mxPoint x="89.99999999999999" y="520" as="sourcePoint" />
            <mxPoint x="181" y="520" as="targetPoint" />
          </mxGeometry>
        </mxCell>
        <mxCell id="I8Ql2MuUo-6YVxlQ8j8f-40" value="" style="endArrow=none;html=1;rounded=0;" edge="1" parent="1">
          <mxGeometry width="50" height="50" relative="1" as="geometry">
            <mxPoint x="89.99999999999999" y="615" as="sourcePoint" />
            <mxPoint x="181" y="615" as="targetPoint" />
          </mxGeometry>
        </mxCell>
        <mxCell id="I8Ql2MuUo-6YVxlQ8j8f-41" value="" style="endArrow=none;html=1;rounded=0;" edge="1" parent="1">
          <mxGeometry width="50" height="50" relative="1" as="geometry">
            <mxPoint x="89.99999999999999" y="704" as="sourcePoint" />
            <mxPoint x="181" y="704" as="targetPoint" />
          </mxGeometry>
        </mxCell>
      </root>
    </mxGraphModel>
  </diagram>
</mxfile>
